<svg width="204" height="52" viewBox="0 0 204 52" fill="none" xmlns="http://www.w3.org/2000/svg">
<path d="M103.856 9.64551V14.084C103.856 15.3225 103.88 16.4455 103.915 17.2588C103.932 17.6652 103.953 17.9951 103.975 18.2236C103.986 18.3377 103.997 18.428 104.009 18.4902C104.015 18.5209 104.021 18.547 104.028 18.5664C104.032 18.5758 104.037 18.5864 104.044 18.5957C104.05 18.6037 104.066 18.6221 104.093 18.6221C104.115 18.622 104.142 18.6127 104.165 18.6025C104.191 18.5914 104.222 18.5754 104.256 18.5557C104.325 18.5159 104.413 18.4588 104.513 18.3887C104.711 18.2486 104.959 18.0541 105.208 17.8369C106.309 16.951 107.656 16.6409 110.065 16.8262H110.066C111.252 16.9031 112.25 17.2109 113.074 17.7471C113.898 18.2832 114.551 19.0498 115.043 20.0488C115.381 20.7411 115.565 21.2082 115.677 22.2109C115.789 23.2178 115.827 24.7625 115.873 27.6104L115.966 33.6885H112.01V29.1572C112.01 26.6814 111.939 25.0367 111.729 23.8711C111.519 22.7033 111.167 22.0124 110.601 21.4463C108.962 19.8091 106.015 20.3509 104.577 22.5361C104.406 22.7846 104.275 22.9977 104.174 23.251C104.073 23.5044 104.004 23.7961 103.957 24.2031C103.864 25.0153 103.856 26.2959 103.856 28.6621V33.6885H99.6201V9.64551H103.856Z" fill="#EFEFEF" stroke="#010101" stroke-width="0.1"/>
<path d="M129.875 9.64551V33.6885H125.638V9.64551H129.875Z" fill="#EFEFEF" stroke="#010101" stroke-width="0.1"/>
<path d="M92.3965 16.7324L92.4453 16.7344L94.7061 16.8271L96.8896 16.918L96.9805 18.6367L97.0713 20.3789H92.3965V24.6084C92.3965 26.6641 92.4044 27.7297 92.5098 28.377C92.5627 28.7023 92.6409 28.9255 92.7568 29.1172C92.8721 29.3077 93.0237 29.4642 93.2168 29.6572C93.6091 30.0493 93.9836 30.2666 94.4521 30.3066C94.9172 30.3463 95.4682 30.2106 96.2129 29.916V29.917C96.3076 29.8806 96.3856 29.8711 96.4551 29.8896C96.5246 29.9083 96.5938 29.9564 96.667 30.0479C96.8156 30.2335 96.9674 30.5811 97.1689 31.1543V31.1553C97.3393 31.6659 97.4651 32.0579 97.5371 32.3652C97.6093 32.6737 97.6255 32.8897 97.5859 33.0498C97.5474 33.2054 97.4542 33.3141 97.2881 33.4062C97.1192 33.5 96.8793 33.574 96.5537 33.6592L96.5527 33.6602C95.1827 34.0447 93.7431 34.0597 92.4775 33.7676C91.2114 33.4753 90.1227 32.8761 89.4502 32.0361C88.9931 31.4417 88.6702 30.5994 88.4619 29.3584C88.2536 28.1168 88.1611 26.4797 88.1611 24.2988V20.3789H85.0635V16.7646H88.1611V12.458L89.293 12.3389C89.9113 12.2771 90.9016 12.2155 91.459 12.1846V12.1836L92.3965 12.125V16.7324Z" fill="#EFEFEF" stroke="#010101" stroke-width="0.1"/>
<path d="M18.1113 15.2324C18.1369 15.2464 18.172 15.2672 18.2158 15.2949C18.3035 15.3505 18.4244 15.4318 18.5693 15.5322C18.8591 15.733 19.2455 16.0112 19.6631 16.3203C20.0745 16.6229 20.3798 16.8434 20.5859 17.0303C20.7927 17.2178 20.8894 17.3627 20.9014 17.5107C20.9134 17.6598 20.8407 17.8283 20.667 18.0664C20.5806 18.1848 20.4712 18.3179 20.3389 18.4717L19.8721 19.002L19.8711 19.0039C19.6242 19.3124 19.486 19.5054 19.5234 19.8223C19.5417 19.9766 19.6015 20.1583 19.7031 20.3955C19.754 20.5141 19.8155 20.6477 19.8887 20.7998L20.1436 21.3174C21.6054 24.2694 21.0706 28.0848 18.998 30.1338L18.793 30.3262C18.5075 30.5729 18.2899 30.7628 18.1484 30.9209C18.0084 31.0774 17.9313 31.2155 17.9521 31.3574C17.9728 31.4972 18.0858 31.6217 18.2686 31.7578C18.4537 31.8957 18.7239 32.0553 19.0791 32.2637L19.0801 32.2646C19.4702 32.4821 19.8133 32.9068 20.0908 33.4678C20.3679 34.0278 20.577 34.7188 20.7041 35.46C20.9586 36.9435 20.881 38.6201 20.3594 39.8467V39.8477C18.977 43.2244 14.8851 45.0442 10.6279 44.2119H10.627C9.6808 44.0498 8.64064 43.7463 8.08789 43.5293L7.88281 43.4424C7.22485 43.0901 6.47154 42.4295 5.82031 41.6709C5.16843 40.9114 4.62285 40.0585 4.37793 39.3242V39.3232C4.16865 38.719 4.01662 38.2634 3.94434 37.9189C3.87167 37.5724 3.8836 37.3531 3.98145 37.209C4.07892 37.0656 4.27327 36.9807 4.6123 36.9346C4.94942 36.8887 5.4141 36.8828 6.03418 36.8828C6.52177 36.8828 6.90005 36.8869 7.19336 36.9014C7.48718 36.9158 7.6927 36.9406 7.83594 36.9814C7.97794 37.022 8.05282 37.0764 8.09473 37.1455C8.13798 37.2172 8.15234 37.3142 8.15234 37.4521C8.15243 37.7198 8.25565 38.0075 8.43066 38.293C8.60602 38.579 8.85547 38.8664 9.15234 39.1338C9.74584 39.6683 10.535 40.1287 11.3174 40.3477H11.3184C11.9388 40.5026 12.3559 40.5745 12.7783 40.5469C13.2001 40.5192 13.6239 40.3932 14.2588 40.1611L14.2598 40.1602C15.8229 39.5509 16.6971 38.3761 16.8232 37.1592C16.9416 36.0175 16.4006 34.8487 15.1709 34.0879L14.916 33.9414C14.825 33.8918 14.6711 33.8398 14.4746 33.7881C14.2766 33.7359 14.0314 33.6822 13.7559 33.6299C13.2048 33.5252 12.53 33.4252 11.8633 33.3477H11.8613C9.76106 33.147 8.15295 32.6145 6.93945 31.7012C5.80223 30.8452 5.00733 29.6511 4.48047 28.0703L4.37891 27.749C3.08433 23.3742 4.8734 18.9448 8.65723 17.1924L8.65625 17.1914C9.53106 16.7926 10.8487 16.5391 12.1504 16.4619C13.3713 16.3895 14.5698 16.4737 15.3701 16.7363L15.5244 16.791C15.9094 16.9449 16.1593 17.0156 16.4043 16.9229C16.5256 16.8769 16.6415 16.792 16.7705 16.667C16.8995 16.542 17.0446 16.3739 17.2227 16.1572C17.439 15.8947 17.6479 15.6556 17.8096 15.4824C17.8904 15.3958 17.9589 15.3259 18.0107 15.2783C18.0366 15.2546 18.0578 15.2378 18.0732 15.2266C18.0776 15.2234 18.0811 15.2206 18.084 15.2188C18.0906 15.2217 18.0997 15.2261 18.1113 15.2324ZM12.7119 20.1533C11.8762 20.1065 11.0366 20.2704 10.4062 20.6641H10.4053C8.93375 21.6028 8.16809 23.2289 8.12891 24.8486C8.08986 26.4681 8.77755 28.0875 10.2188 29.0117V29.0127C10.8187 29.4072 11.7052 29.5858 12.5859 29.5625C13.4669 29.5391 14.3529 29.3132 14.9521 28.8877C16.2376 27.9791 16.8858 26.4455 16.8975 24.9121C16.9083 23.4746 16.3601 22.0302 15.2451 21.0938L15.0146 20.9141C14.386 20.4586 13.5478 20.2002 12.7119 20.1533Z" fill="#EFEFEF" stroke="#010101" stroke-width="0.1"/>
<path d="M29.4072 16.8828C30.279 16.501 31.5393 16.3933 32.7617 16.5166C33.9846 16.64 35.1585 16.9939 35.8604 17.5273C36.009 17.6446 36.1126 17.7296 36.1768 17.8193C36.2378 17.9048 36.264 17.9962 36.248 18.1318C36.2315 18.2713 36.1712 18.4561 36.0586 18.7227C35.9464 18.9883 35.7842 19.3314 35.5674 19.7881C35.3199 20.2981 35.0796 20.7613 34.8906 21.0967C34.7961 21.2644 34.7145 21.3997 34.6514 21.4922C34.6198 21.5384 34.5934 21.5725 34.5732 21.5947C34.5645 21.6044 34.5576 21.6104 34.5527 21.6143C34.5474 21.6133 34.5388 21.6131 34.5273 21.6094C34.5101 21.6038 34.4882 21.5946 34.4629 21.583C34.4124 21.5598 34.3488 21.5262 34.2783 21.4844C34.1371 21.4005 33.9693 21.2853 33.8164 21.1631H33.8154C33.6052 21.0014 33.2846 20.8846 32.9092 20.8096C32.5325 20.7343 32.0953 20.6992 31.6475 20.7031C30.8651 20.7099 30.0426 20.8359 29.4482 21.0781L29.21 21.1885C28.8187 21.384 28.5038 21.6068 28.2539 21.9209C28.0042 22.2348 27.8212 22.6373 27.6885 23.1875C27.4236 24.2855 27.3545 25.9868 27.3545 28.7861V33.6885H23.1182V16.7646H25.0508C25.5468 16.7646 25.9168 16.7644 26.1973 16.7793C26.4785 16.7942 26.6634 16.8238 26.792 16.8799C26.9166 16.9343 26.9908 17.0145 27.0479 17.1396C27.1067 17.2688 27.1465 17.4428 27.2012 17.6846C27.2552 17.9235 27.2956 18.106 27.334 18.2324C27.3531 18.2955 27.3725 18.3475 27.3936 18.3867C27.414 18.4247 27.4408 18.4592 27.4785 18.4746C27.5199 18.4915 27.5604 18.4802 27.5947 18.459C27.628 18.4384 27.662 18.4047 27.6973 18.3633C27.7681 18.28 27.8573 18.1495 27.9727 17.9805L27.9717 17.9795C28.1073 17.7994 28.3362 17.5878 28.5967 17.3887C28.8576 17.1893 29.148 17.0047 29.4072 16.8828Z" fill="#EFEFEF" stroke="#010101" stroke-width="0.1"/>
<mask id="mask0_1195_10178" style="mask-type:luminance" maskUnits="userSpaceOnUse" x="37" y="16" width="18" height="18">
<path d="M54.9199 16.4541V33.3779H37.0557V16.4541H54.9199Z" fill="white" stroke="#010101" stroke-width="0.1"/>
</mask>
<g mask="url(#mask0_1195_10178)">
<path d="M50.8474 25.2751C50.8474 26.4004 50.4435 27.4374 49.7752 28.2486L46.048 24.5919V24.598L46.0387 24.5919L42.2929 28.2669C41.6152 27.4526 41.2051 26.4096 41.2051 25.2751C41.2051 22.6614 43.3624 20.5449 46.0263 20.5449C48.6902 20.5449 50.8474 22.6614 50.8474 25.2751Z" stroke="#010101" stroke-width="0.1" stroke-miterlimit="10"/>
<path d="M45.9863 16.4541C50.9207 16.4541 54.9197 20.3791 54.9199 25.2178C54.9199 27.4459 54.0707 29.4765 52.6758 31.0244L49.8418 28.2451C50.4999 27.4307 50.8984 26.3974 50.8984 25.2764C50.8984 22.6341 48.7142 20.4961 46.0264 20.4961C43.339 20.4962 41.1553 22.6342 41.1553 25.2764C41.1553 26.4064 41.5586 27.4463 42.2256 28.2637L39.3516 31.083C37.9229 29.5288 37.0557 27.4734 37.0557 25.2178C37.0558 20.379 41.0521 16.4541 45.9863 16.4541Z" fill="#EFEFEF" stroke="#010101" stroke-width="0.1"/>
<path d="M50.8474 25.2751C50.8474 26.4004 50.4435 27.4374 49.7752 28.2486L46.048 24.5919V24.598L46.0387 24.5919L42.2929 28.2669C41.6152 27.4526 41.2051 26.4096 41.2051 25.2751C41.2051 22.6614 43.3624 20.5449 46.0263 20.5449C48.6902 20.5449 50.8474 22.6614 50.8474 25.2751Z" stroke="#010101" stroke-width="0.1" stroke-miterlimit="10"/>
<path d="M46.0713 24.7188V24.7129L49.7158 28.2861L52.5801 31.0996C51.6842 32.0669 50.5696 32.8371 49.3174 33.335L46.0557 30.1357L46.0205 30.1016L45.9863 30.1357L42.6865 33.3691C41.422 32.8802 40.3006 32.1189 39.3926 31.1572L42.3037 28.3047L46.0146 24.6641L46.0713 24.7188Z" fill="#01CFF4" stroke="#010101" stroke-width="0.1"/>
</g>
<path d="M173.299 16.7305C175.265 16.1317 177.466 16.5236 179.326 17.582C181.187 18.6406 182.703 20.3645 183.303 22.4238V22.4248C184.025 24.8514 183.826 27.6023 182.809 29.6855L182.594 30.0928C181.518 32.0288 179.563 33.3607 177.398 33.9111C175.369 34.427 173.16 34.2551 171.32 33.2568L170.957 33.0459L169.904 32.3965L169.828 32.3486V40.8359L167.649 40.7461L165.437 40.6553V16.9199H169.369L169.519 17.9297C169.557 18.1692 169.589 18.3552 169.62 18.4902C169.636 18.5576 169.651 18.6142 169.669 18.6592C169.686 18.7033 169.707 18.7408 169.734 18.7666C169.764 18.7947 169.801 18.808 169.842 18.8018C169.879 18.796 169.914 18.7753 169.947 18.749C170.014 18.6962 170.094 18.6021 170.193 18.4795L170.194 18.4805C170.436 18.1935 170.91 17.8486 171.478 17.5283C172.044 17.2087 172.7 16.9159 173.3 16.7314L173.299 16.7305ZM174.31 20.6152C173.21 20.7127 172.146 21.111 171.393 21.7852C170.949 22.1807 170.613 22.8094 170.406 23.5576C170.199 24.3065 170.122 25.179 170.199 26.0664V26.0674C170.261 26.7041 170.355 27.1523 170.549 27.5547C170.742 27.9568 171.033 28.3099 171.483 28.7598L171.484 28.7607C171.98 29.2405 172.318 29.5251 172.734 29.6992C173.15 29.873 173.638 29.934 174.427 29.9805V29.9814C175.485 30.0592 176.355 29.9351 177.085 29.582C177.816 29.2287 178.402 28.6476 178.901 27.8213L178.902 27.8223C179.53 26.7873 179.654 25.4341 179.381 24.1982C179.108 22.9628 178.435 21.8346 177.46 21.2529C176.551 20.7205 175.41 20.5178 174.31 20.6152Z" fill="#EFEFEF" stroke="#010101" stroke-width="0.1"/>
<path d="M190.238 16.7637C191.253 16.5179 192.563 16.4873 193.859 16.6377C195.156 16.7881 196.435 17.1193 197.389 17.5957H197.39C197.867 17.8268 198.299 18.0809 198.61 18.2959C198.766 18.4034 198.89 18.5011 198.976 18.5801C199.018 18.6197 199.051 18.6541 199.071 18.6816C199.081 18.6952 199.088 18.7063 199.092 18.7148C199.096 18.7235 199.096 18.7275 199.096 18.7275C199.096 18.7425 199.091 18.7671 199.079 18.8027C199.067 18.8377 199.049 18.8799 199.024 18.9287C198.976 19.0265 198.906 19.1478 198.817 19.2842C198.641 19.5568 198.394 19.8875 198.117 20.2109L198.116 20.2129L197.18 21.3877L195.854 20.7256L195.854 20.7246C194.589 20.1165 193.046 19.9458 191.817 20.1211C191.203 20.2088 190.664 20.3833 190.277 20.6367C189.89 20.8905 189.649 21.2273 189.649 21.6367C189.649 22.1555 189.943 22.5724 190.515 22.8916C191.084 23.2096 191.936 23.4346 193.068 23.5742C195.19 23.8527 196.6 24.1619 197.591 24.6455C198.578 25.1272 199.151 25.7834 199.596 26.7646C200.134 27.9482 200.279 29.0979 200.042 30.1533C199.805 31.2086 199.185 32.1741 198.186 32.9883C196.804 34.1233 195.082 34.6171 192.395 34.6172C190.051 34.6172 188.226 34.1025 186.534 32.998L186.197 32.7695L184.812 31.7764L185.343 30.9814V30.9805C185.621 30.5478 186.085 29.8683 186.363 29.498V29.4971L186.834 28.8496L188.747 29.8223V29.8213C189.554 30.2396 190.138 30.4971 190.721 30.6494C191.303 30.8018 191.881 30.8486 192.673 30.8486C193.837 30.8486 194.709 30.6554 195.248 30.2871C195.518 30.1023 195.707 29.8726 195.804 29.6016C195.889 29.3644 195.903 29.0983 195.847 28.8076L195.818 28.6816C195.705 28.2128 195.388 27.8775 194.755 27.626C194.203 27.4068 193.406 27.2485 192.281 27.1191L191.779 27.0654C189.55 26.8339 187.953 26.1965 186.879 25.1084L186.671 24.8848C185.351 23.3663 185.131 21.6226 185.792 20.1172C186.413 18.704 187.814 17.494 189.828 16.8789L190.238 16.7637Z" fill="#EFEFEF" stroke="#010101" stroke-width="0.1"/>
<path d="M57.8818 16.7646H60.1367L61.0557 19.7314V19.7324C61.582 21.4033 62.4483 24.2182 63.0059 26.0137V26.0146C63.2694 26.913 63.5334 27.688 63.7393 28.2158C63.842 28.4793 63.9313 28.683 63.999 28.8096C64.0322 28.8715 64.0627 28.9202 64.0898 28.9473C64.097 28.9544 64.1057 28.9613 64.1152 28.9668C64.1245 28.9722 64.1381 28.9781 64.1543 28.9775C64.1939 28.976 64.211 28.9432 64.2168 28.9258V28.9238C64.2787 28.7073 65.0842 25.9215 65.9824 22.7334L67.6133 16.9199H71.4414L73.0723 22.6094C74.0009 25.7646 74.8377 28.5533 74.9316 28.8037C74.9364 28.8163 74.9466 28.8352 74.9678 28.8457C74.9914 28.8573 75.0138 28.8512 75.0283 28.8438C75.0421 28.8366 75.0542 28.8266 75.0635 28.8164C75.0732 28.8056 75.0829 28.7921 75.0928 28.7773C75.1317 28.7192 75.1811 28.6209 75.2393 28.4893C75.3562 28.2244 75.5133 27.8126 75.6992 27.2861C75.9783 26.496 76.323 25.445 76.6934 24.2373L77.0703 22.9814L78.9492 16.7646H83.6729L81.9619 21.5576C81.0329 24.2501 79.6706 28.1189 78.958 30.1621V30.1631L77.6992 33.8438H72.8145L71.9902 31.5547C71.5567 30.2861 70.8447 28.0287 70.4736 26.5146H70.4746L70.4736 26.5137L70.1768 25.4648C70.0808 25.1424 69.9897 24.8517 69.9082 24.6074C69.8268 24.3633 69.7541 24.1645 69.6963 24.0264C69.6675 23.9576 69.6414 23.9019 69.6191 23.8633C69.6082 23.8443 69.5973 23.8273 69.5859 23.8145C69.5802 23.808 69.5728 23.8015 69.5645 23.7959L69.5273 23.7842C69.5018 23.7842 69.4817 23.7972 69.4688 23.8086C69.455 23.8207 69.4417 23.8368 69.4297 23.8545C69.4055 23.8903 69.3798 23.9412 69.3525 24.0029C69.2977 24.1273 69.234 24.3061 69.166 24.5234C69.0301 24.9582 68.8749 25.5547 68.7354 26.2051C68.4263 27.5025 67.7146 29.7602 67.1885 31.2139L66.209 33.8438H61.4482L60.7471 31.8652V31.8643C60.3444 30.7498 59.0438 27.098 57.8359 23.6934C57.2321 22.0068 56.6828 20.4207 56.2842 19.2295C56.0848 18.6338 55.9231 18.1366 55.8115 17.7754C55.7557 17.5948 55.7118 17.4485 55.6826 17.3408C55.668 17.2871 55.6577 17.2433 55.6504 17.21C55.6428 17.1755 55.6397 17.156 55.6396 17.1484C55.6396 17.0804 55.6665 17.0253 55.7334 16.9775C55.8038 16.9275 55.919 16.885 56.0947 16.8525C56.4457 16.7878 57.0142 16.7646 57.8818 16.7646Z" fill="#EFEFEF" stroke="#010101" stroke-width="0.1"/>
<mask id="mask1_1195_10178" style="mask-type:luminance" maskUnits="userSpaceOnUse" x="132" y="16" width="32" height="18">
<path d="M163.064 16.0957H132.092V33.7386H163.064V16.0957Z" fill="white"/>
</mask>
<g mask="url(#mask1_1195_10178)">
<path d="M163.076 24.8867C163.076 29.5955 159.341 33.4405 154.653 33.6655C154.505 33.6748 154.361 33.6776 154.214 33.6776C152.162 33.6776 150.273 32.9874 148.774 31.8282C148.979 30.3591 150.298 29.2275 151.89 29.2275C152.184 29.2275 152.469 29.267 152.739 29.337C152.825 29.3674 152.911 29.3948 152.996 29.4191C153.383 29.5316 153.791 29.5895 154.214 29.5895C156.649 29.5895 158.624 27.6305 158.624 25.2122C158.624 22.7939 156.649 20.838 154.214 20.838C151.779 20.838 150.001 22.6084 149.82 24.8563V24.8624C149.81 24.978 149.82 25.0601 149.804 25.2122C149.801 25.2517 149.804 25.2913 149.804 25.3278V25.34C149.7 27.4023 148.875 29.2761 147.581 30.721C145.959 32.5339 143.588 33.6776 140.951 33.6776C136.06 33.6776 132.092 29.7416 132.092 24.8867C132.092 20.0319 136.002 16.1535 140.847 16.0987C140.884 16.0957 140.917 16.0957 140.954 16.0957C142.948 16.0957 144.784 16.7467 146.265 17.8448C146.275 17.9482 146.281 18.0516 146.281 18.1581C146.281 19.8159 144.87 21.1604 143.134 21.1604C142.877 21.1604 142.622 21.13 142.383 21.0722C142.266 21.0327 142.15 20.9992 142.03 20.9688C141.687 20.8836 141.325 20.838 140.954 20.838C138.519 20.838 136.544 22.797 136.544 25.2122C136.544 27.6275 138.519 29.5895 140.954 29.5895C143.389 29.5895 145.284 27.7126 145.364 25.3643C145.367 25.3156 145.367 25.2639 145.367 25.2122C145.367 25.1027 145.361 24.9567 145.349 24.832C145.364 22.6144 146.207 20.5885 147.584 19.0524C149.206 17.2395 151.577 16.0957 154.214 16.0957C159.108 16.0957 163.076 20.0319 163.076 24.8867Z" fill="#06D0F6"/>
</g>
</svg>
